<?xml version="1.0" standalone="no"?>
<!DOCTYPE svg PUBLIC "-//W3C//DTD SVG 20010904//EN"
 "http://www.w3.org/TR/2001/REC-SVG-20010904/DTD/svg10.dtd">
<svg version="1.0" xmlns="http://www.w3.org/2000/svg"
 width="1280.000000pt" height="1280.000000pt" viewBox="0 0 1280.000000 1280.000000"
 preserveAspectRatio="xMidYMid meet">
<metadata>
Created by potrace 1.14, written by Peter Selinger 2001-2017
</metadata>
<g transform="translate(0.000000,1280.000000) scale(0.100000,-0.100000)"
fill="#000000" stroke="none">
<path d="M6209 10665 c-2 -1 -60 -6 -129 -10 -69 -4 -127 -8 -130 -10 -3 -2
-36 -6 -75 -9 -38 -4 -77 -9 -85 -11 -8 -2 -33 -6 -55 -10 -22 -3 -65 -10 -95
-15 -30 -5 -66 -11 -80 -14 -14 -2 -65 -14 -115 -26 -49 -12 -100 -23 -112
-26 -61 -12 -281 -81 -401 -126 -404 -150 -754 -340 -1092 -592 -52 -39 -106
-80 -120 -92 -198 -170 -266 -233 -385 -355 -513 -528 -893 -1205 -1069 -1906
-35 -140 -70 -311 -81 -393 -3 -25 -8 -52 -10 -60 -2 -8 -6 -40 -10 -70 -3
-30 -7 -68 -9 -85 -26 -198 -26 -807 -1 -905 2 -8 7 -44 10 -80 3 -36 8 -72
10 -80 2 -8 7 -35 10 -60 44 -322 173 -753 329 -1095 34 -74 141 -283 163
-317 12 -21 23 -41 23 -44 0 -11 130 -215 203 -319 74 -104 190 -255 242 -314
344 -393 685 -679 1110 -928 147 -86 429 -225 548 -269 23 -9 51 -20 62 -25
163 -74 639 -201 875 -233 113 -16 208 -28 245 -31 298 -25 511 -25 835 0 23
2 95 11 160 20 14 2 43 6 65 10 23 3 52 7 65 10 13 3 42 7 64 11 22 3 43 7 46
9 3 2 26 6 50 10 102 15 504 127 525 146 5 5 15 9 23 9 15 0 200 71 312 121
108 48 343 169 430 223 41 25 93 55 114 67 21 11 44 25 50 30 6 5 65 47 131
94 214 150 371 283 558 469 95 95 145 150 276 301 14 17 74 95 134 175 59 80
112 150 117 157 5 6 54 86 110 178 106 178 233 429 295 585 21 52 43 109 50
125 22 53 93 276 124 390 43 158 90 388 106 520 3 28 8 64 10 80 32 196 37
723 9 940 -2 17 -6 53 -9 80 -6 51 -21 151 -30 195 -2 13 -7 42 -11 65 -17
121 -84 383 -143 562 -102 310 -264 654 -435 927 -248 395 -592 781 -956 1072
-132 105 -277 207 -412 290 -68 41 -130 79 -138 85 -47 30 -431 216 -520 251
-257 101 -497 171 -790 233 -16 3 -213 33 -265 40 -16 2 -64 7 -105 10 -41 3
-86 9 -100 12 -27 6 -516 14 -521 8z"/>
</g>
</svg>
